# Blender v2.76 (sub 0) OBJ File: 'BendField.blend'
# www.blender.org
mtllib BendField.mtl
o Cube
v 1.151020 -0.100000 -0.156630
v 1.151020 -0.100000 0.156630
v -1.228450 -0.100000 0.469890
v -1.228450 -0.100000 -0.469890
v 1.151020 0.000000 -0.156630
v 1.151020 0.000000 0.156630
v -1.228450 0.000000 0.469890
v -1.228450 0.000000 -0.469890
vt 0.074624 0.112452
vt 0.085815 0.027444
vt 0.742709 0.027445
vt 0.709134 0.282467
vt 0.067540 0.138890
vt 0.702051 0.308904
vt 0.603617 0.546547
vt 0.034729 0.218104
vt 0.000074 0.027444
vt 0.000074 0.000074
vt 0.085815 0.000074
vt 0.742709 0.000075
vt 0.999926 0.000075
vt 0.999926 0.027445
vn 0.000000 -1.000000 0.000000
vn 0.000000 1.000000 0.000000
vn 1.000000 0.000000 0.000000
vn 0.130500 0.000000 0.991400
vn -1.000000 0.000000 0.000000
vn 0.130500 0.000000 -0.991400
usemtl Material
s off
f 1/1/1 2/2/1 3/3/1 4/4/1
f 5/5/2 8/6/2 7/7/2 6/8/2
f 1/9/3 5/10/3 6/11/3 2/2/3
f 2/2/4 6/11/4 7/12/4 3/3/4
f 3/3/5 7/12/5 8/13/5 4/14/5
f 5/5/6 1/1/6 4/4/6 8/6/6
