# Blender v2.76 (sub 0) OBJ File: 'StairField5.blend'
# www.blender.org
mtllib StairField5.mtl
o Cube
v 0.400000 -1.300000 -1.200000
v 0.400000 -1.300000 1.200000
v -0.400000 -1.300000 1.200000
v -0.400000 -1.300000 -1.200000
v 0.400000 0.000000 -1.200000
v 0.400000 0.000000 1.200000
v -0.400000 0.000000 1.200000
v -0.400000 0.000000 -1.200000
vt 0.375017 0.453131
vt 0.000067 0.453131
vt 0.000067 0.328148
vt 0.375017 0.328148
vt 0.375017 0.000067
vt 0.375017 0.125051
vt 0.000067 0.125050
vt 0.000067 0.000067
vt 0.500000 0.328148
vt 0.500000 0.125051
vt 0.874950 0.125051
vt 0.874949 0.328148
vt 0.999933 0.125051
vt 0.999932 0.328148
vn 0.000000 -1.000000 0.000000
vn 0.000000 1.000000 0.000000
vn 1.000000 0.000000 0.000000
vn 0.000000 0.000000 1.000000
vn -1.000000 0.000000 0.000000
vn 0.000000 0.000000 -1.000000
usemtl Material
s off
f 1/1/1 2/2/1 3/3/1 4/4/1
f 5/5/2 8/6/2 7/7/2 6/8/2
f 1/9/3 5/10/3 6/11/3 2/12/3
f 2/12/4 6/11/4 7/13/4 3/14/4
f 3/3/5 7/7/5 8/6/5 4/4/5
f 5/10/6 1/9/6 4/4/6 8/6/6
