# Blender v2.76 (sub 0) OBJ File: 'BendField_4.7x12x0.5.blend'
# www.blender.org
mtllib BendField_4.7x12x0.5.mtl
o Cylinder
v -1.200000 -0.050000 0.000001
v -3.600000 -0.050000 0.000002
v -3.600000 -0.050000 0.000000
v -1.200000 -0.050000 0.000000
v -1.200000 0.050000 0.000000
v -1.200000 0.050000 0.000001
v -3.477333 -0.050000 0.931748
v -1.159111 -0.050000 0.310583
v -3.600000 0.050000 0.000002
v -3.600000 0.050000 0.000000
v -3.477333 0.050000 0.931748
v -1.159111 0.050000 0.310583
vn 0.000000 -1.000000 0.007300
vn 1.000000 0.000000 0.000000
vn 0.000000 -1.000000 -0.000000
vn -0.984800 0.000000 -0.173800
vn 0.000000 1.000000 0.000000
vn 0.991400 0.000000 -0.130500
vn 0.258800 0.000000 0.965900
vn -0.991400 0.000000 0.130500
vn -0.000000 0.000000 -1.000000
usemtl None
s off
f 1//1 2//1 3//1 4//1
f 5//2 6//2 1//2 4//2
f 7//3 2//3 1//3 8//3
f 3//4 2//4 9//4 10//4
f 10//5 9//5 11//5 12//5 6//5 5//5
f 8//6 1//6 6//6 12//6
f 7//7 8//7 12//7 11//7
f 11//8 9//8 2//8 7//8
f 10//9 5//9 4//9 3//9
