# Blender v2.76 (sub 0) OBJ File: 'RegularField.blend'
# www.blender.org
mtllib RegularField.mtl
o Cube
v 0.400000 -0.100000 -1.200000
v 0.400000 -0.100000 1.200000
v -0.400000 -0.100000 1.200000
v -0.400000 -0.100000 -1.200000
v 0.400000 0.000000 -1.200000
v 0.400000 0.000000 1.200000
v -0.400000 0.000000 1.200000
v -0.400000 0.000000 -1.200000
vt 0.480002 0.180028
vt 0.000045 0.180029
vt 0.000045 0.020043
vt 0.480002 0.020043
vt 0.500000 0.180028
vt 0.500000 0.020043
vt 0.979957 0.020042
vt 0.979957 0.180027
vt 0.480002 0.200027
vt 0.000045 0.200027
vt 0.999955 0.180027
vt 0.999955 0.020042
vt 0.000045 0.000045
vt 0.480002 0.000045
vn 0.000000 -1.000000 0.000000
vn 0.000000 1.000000 0.000000
vn 1.000000 0.000000 0.000000
vn 0.000000 0.000000 1.000000
vn -1.000000 0.000000 0.000000
vn 0.000000 0.000000 -1.000000
usemtl Material
s off
f 1/1/1 2/2/1 3/3/1 4/4/1
f 5/5/2 8/6/2 7/7/2 6/8/2
f 1/1/3 5/9/3 6/10/3 2/2/3
f 2/11/4 6/8/4 7/7/4 3/12/4
f 3/3/5 7/13/5 8/14/5 4/4/5
f 5/5/6 1/1/6 4/4/6 8/6/6
