# Blender v2.76 (sub 0) OBJ File: 'StairField0.blend'
# www.blender.org
mtllib StairField0.mtl
o Cube
v 0.400000 -0.300000 -1.200000
v 0.400000 -0.300000 1.200000
v -0.400000 -0.300000 1.200000
v -0.400000 -0.300000 -1.200000
v 0.400000 0.000000 -1.200000
v 0.400000 0.000000 1.200000
v -0.400000 0.000000 1.200000
v -0.400000 0.000000 -1.200000
vt 0.375015 0.296898
vt 0.000054 0.296898
vt 0.000054 0.171911
vt 0.375015 0.171911
vt 0.375015 0.000054
vt 0.375015 0.125041
vt 0.000054 0.125041
vt 0.000054 0.000054
vt 0.500001 0.171911
vt 0.500001 0.125041
vt 0.874960 0.125042
vt 0.874960 0.171911
vt 0.999945 0.125042
vt 0.999945 0.171911
vn 0.000000 -1.000000 0.000000
vn 0.000000 1.000000 0.000000
vn 1.000000 0.000000 0.000000
vn 0.000000 0.000000 1.000000
vn -1.000000 0.000000 0.000000
vn 0.000000 0.000000 -1.000000
usemtl Material
s off
f 1/1/1 2/2/1 3/3/1 4/4/1
f 5/5/2 8/6/2 7/7/2 6/8/2
f 1/9/3 5/10/3 6/11/3 2/12/3
f 2/12/4 6/11/4 7/13/4 3/14/4
f 3/3/5 7/7/5 8/6/5 4/4/5
f 5/10/6 1/9/6 4/4/6 8/6/6
