# Blender v2.76 (sub 0) OBJ File: 'StairField1.blend'
# www.blender.org
mtllib StairField1.mtl
o Cube
v 0.400000 -0.500000 -1.200000
v 0.400000 -0.500000 1.200000
v -0.400000 -0.500000 1.200000
v -0.400000 -0.500000 -1.200000
v 0.400000 0.000000 -1.200000
v 0.400000 0.000000 1.200000
v -0.400000 0.000000 1.200000
v -0.400000 0.000000 -1.200000
vt 0.375014 0.328145
vt 0.000057 0.328145
vt 0.000057 0.203159
vt 0.375014 0.203159
vt 0.375014 0.000057
vt 0.375014 0.125043
vt 0.000057 0.125043
vt 0.000057 0.000057
vt 0.500000 0.203159
vt 0.500000 0.125043
vt 0.874957 0.125043
vt 0.874957 0.203159
vt 0.999943 0.125043
vt 0.999943 0.203159
vn 0.000000 -1.000000 0.000000
vn 0.000000 1.000000 0.000000
vn 1.000000 0.000000 0.000000
vn 0.000000 0.000000 1.000000
vn -1.000000 0.000000 0.000000
vn 0.000000 0.000000 -1.000000
usemtl Material
s off
f 1/1/1 2/2/1 3/3/1 4/4/1
f 5/5/2 8/6/2 7/7/2 6/8/2
f 1/9/3 5/10/3 6/11/3 2/12/3
f 2/12/4 6/11/4 7/13/4 3/14/4
f 3/3/5 7/7/5 8/6/5 4/4/5
f 5/10/6 1/9/6 4/4/6 8/6/6
