# Blender v2.76 (sub 0) OBJ File: 'Dice.blend'
# www.blender.org
mtllib Dice.mtl
o Cube
v 0.500000 -0.500000 -0.500000
v 0.500000 -0.500000 0.500000
v -0.500000 -0.500000 0.500000
v -0.500000 -0.500000 -0.500000
v 0.500000 0.500000 -0.500000
v 0.500000 0.500000 0.500000
v -0.500000 0.500000 0.500000
v -0.500000 0.500000 -0.500000
vt 0.250043 0.500000
vt 0.250043 0.749957
vt 0.000087 0.749957
vt 0.000087 0.500000
vt 0.250043 0.250043
vt 0.000087 0.250043
vt 0.000087 0.000087
vt 0.250043 0.000087
vt 0.500000 0.250043
vt 0.500000 0.500000
vt 0.749957 0.250043
vt 0.749957 0.500000
vt 0.999913 0.250043
vt 0.999913 0.500000
vn 0.000000 -1.000000 0.000000
vn 0.000000 1.000000 0.000000
vn 1.000000 0.000000 0.000000
vn -0.000000 -0.000000 1.000000
vn -1.000000 -0.000000 -0.000000
vn 0.000000 0.000000 -1.000000
usemtl Material
s off
f 1/1/1 2/2/1 3/3/1 4/4/1
f 5/5/2 8/6/2 7/7/2 6/8/2
f 1/1/3 5/5/3 6/9/3 2/10/3
f 2/10/4 6/9/4 7/11/4 3/12/4
f 3/12/5 7/11/5 8/13/5 4/14/5
f 5/5/6 1/1/6 4/4/6 8/6/6
